<?xml version="1.0" encoding="UTF-8" standalone="no"?>
<svg
   xmlns:dc="http://purl.org/dc/elements/1.1/"
   xmlns:cc="http://creativecommons.org/ns#"
   xmlns:rdf="http://www.w3.org/1999/02/22-rdf-syntax-ns#"
   xmlns:svg="http://www.w3.org/2000/svg"
   xmlns="http://www.w3.org/2000/svg"
   viewBox="0 0 474.23999 568.73334"
   height="568.73334"
   width="474.23999"
   xml:space="preserve"
   id="svg2"
   version="1.1"><metadata
     id="metadata8"><rdf:RDF><cc:Work
         rdf:about=""><dc:format>image/svg+xml</dc:format><dc:type
           rdf:resource="http://purl.org/dc/dcmitype/StillImage" /></cc:Work></rdf:RDF></metadata><defs
     id="defs6" /><g
     transform="matrix(1.3333333,0,0,-1.3333333,0,568.73333)"
     id="g10"><g
       transform="scale(0.1)"
       id="g12"><path
         id="path14"
         style="fill:#a8a9ab;fill-opacity:1;fill-rule:nonzero;stroke:none"
         d="m 1718.2,2998.49 c -125.8,-0.48 -225.5,-96.59 -224.08,-218.53 1.5,-129.57 95.43,-216.82 219.54,-220.72 122.14,-3.84 226.43,102.21 224.72,226.03 -1.83,132.96 -89.67,204.25 -220.18,213.22 z m -5.9,-659.15 c -252.33,1.26 -433.5,189 -432.23,447.91 1.24,255.08 191.54,457.66 431.2,453.93 251.15,-3.92 450.68,-193.42 446.94,-464.29 -3.42,-247.59 -201.39,-441 -445.91,-437.55" /><path
         id="path16"
         style="fill:#ffffff;fill-opacity:1;fill-rule:nonzero;stroke:none"
         d="m 1732.83,2975.68 c -120.84,-0.46 -216.6,-92.78 -215.25,-209.91 1.45,-124.46 91.68,-208.27 210.89,-212.02 117.32,-3.69 217.5,98.18 215.87,217.12 -1.76,127.72 -86.14,196.2 -211.51,204.81 z m -5.66,-633.16 c -242.39,1.21 -416.42,181.55 -415.2,430.25 1.2,245.03 184,439.63 414.21,436.03 241.24,-3.76 432.91,-185.78 429.32,-445.98 -3.29,-237.83 -193.46,-423.62 -428.33,-420.3" /><path
         id="path18"
         style="fill:#231f20;fill-opacity:1;fill-rule:nonzero;stroke:none"
         d="m 2848.84,2590.94 v 0 c -20.16,0 -36.49,16.34 -36.49,36.49 v 496.24 c 0,20.16 16.33,36.49 36.49,36.49 v 0 c 20.15,0 36.48,-16.33 36.48,-36.49 v -496.24 c 0,-20.15 -16.33,-36.49 -36.48,-36.49 z m -125.09,273.81 c 0,-10.8 -10.36,-29.92 -17.07,-30.5 -21.02,-1.61 -18.83,17.66 -18.83,31.96 -0.15,110.34 3.94,220.98 -1.02,331.03 -8.03,176.6 -63.35,338.32 -178.95,474.06 -59.11,69.47 -138.07,104.94 -230.75,83.63 -31.96,-7.3 -62.03,-29.48 -89.18,-49.77 -23.79,-17.95 -42.18,-43.2 -63.2,-64.95 -15.18,-15.62 -33.57,-23.06 -54.73,-15.03 -21.31,8.17 -20.29,28.02 -21.46,46.41 -1.75,24.23 3.65,42.18 25.69,58.23 42.77,31.53 45.69,90.06 10.66,128.45 -34.16,37.36 -94.58,40.43 -128,6.56 -37.52,-38.09 -38.1,-98.08 3.94,-131.36 24.08,-19.11 28.46,-39.7 25.98,-66.26 -1.76,-20.43 -8.32,-41.74 -29.49,-44.37 -17.66,-2.19 -40.86,2.63 -54.58,13.43 -23.36,18.39 -40.87,44.22 -61.6,66.12 -75.6,79.98 -194.56,80.85 -271.33,1.75 -18.97,-19.71 -36.19,-41.16 -54,-62.18 -17.95,-21.16 -40.14,-28.32 -66.41,-19.12 -24.52,8.76 -25.69,29.92 -26.86,51.96 -1.46,24.52 4.97,42.04 25.25,58.67 32.26,26.86 39.12,69.48 22.63,104.94 -16.79,35.91 -45.39,52.26 -86.7,49.48 -39.85,-2.77 -68.89,-27.43 -80.13,-68.01 -9.49,-34.59 6.13,-72.83 40.14,-97.79 21.45,-15.77 25.54,-66.85 7,-88.45 -15.9,-18.83 -42.18,-16.64 -67.43,6.86 -16.64,15.62 -32.11,32.7 -47.87,49.33 -75.17,78.97 -178.21,96.19 -275.415,45.4 -70.937,-37.22 -125.668,-89.77 -172.082,-156.32 -42.617,-61.45 -75.898,-125.52 -101.586,-194.85 -3.793,50.5 3.793,97.64 20.141,142.01 1.898,5.11 3.797,10.07 5.84,14.74 2.187,5.55 4.523,10.8 7.152,16.21 3.504,7.73 7.008,14.59 10.215,20.72 6.422,11.68 13.43,23.21 20.726,34.59 0.149,0.15 0.293,0.3 0.293,0.3 44.661,67.86 96.77,126.83 155.149,177.76 3.504,3.22 7.152,6.28 10.801,9.35 4.964,4.37 10.074,8.61 15.179,12.69 77.067,62.33 164.057,112.1 258.777,151.65 57.65,24.08 116.04,44.37 174.86,60.43 158.5,43.64 321.24,57.65 487.19,37.36 3.51,-0.29 6.13,-0.73 7.74,-0.87 1.6,-0.15 2.48,-0.3 2.48,-0.3 0.58,-0.14 1.31,-0.14 1.9,-0.29 10.21,-1.31 20.58,-2.77 30.79,-4.37 241.12,-37.95 460.05,-128.88 637.24,-302.57 103.34,-101.15 162.89,-223.46 182.59,-360.95 0.15,-0.73 0.29,-1.31 0.29,-1.89 3.65,-25.4 5.99,-51.53 6.86,-77.94 5.11,-149.17 2.05,-298.63 1.17,-447.94 z m -743.35,930.32 c 0,20.14 16.35,36.48 36.49,36.48 20.14,0 36.49,-16.34 36.49,-36.48 0,-20.14 -16.35,-36.49 -36.49,-36.49 -20.14,0 -36.49,16.35 -36.49,36.49 z m -627.6,0 c 0,20.14 16.34,36.48 36.49,36.48 20.14,0 36.49,-16.34 36.49,-36.48 0,-20.14 -16.35,-36.49 -36.49,-36.49 -20.15,0 -36.49,16.35 -36.49,36.49 z m 359.48,-1455.76 c -252.35,1.32 -433.48,189.01 -432.17,447.94 1.17,255.13 191.5,457.71 431.15,453.92 251.19,-3.94 450.71,-193.39 446.92,-464.28 -3.36,-247.54 -201.42,-440.93 -445.9,-437.58 z M 513.559,2590.94 v 0 c -20.153,0 -36.489,16.34 -36.489,36.49 v 496.24 c 0,20.16 16.336,36.49 36.489,36.49 v 0 c 20.152,0 36.488,-16.33 36.488,-36.49 v -496.24 c 0,-20.15 -16.336,-36.49 -36.488,-36.49 z m 2417.891,611.7 c -6.43,3.5 -12.26,8.17 -18.69,11.67 -12.69,6.86 -21.01,15.33 -24.96,26.71 -2.62,6.86 -3.64,14.74 -3.21,24.08 -16.93,281.26 -102.46,484.72 -224.47,631.55 -16.35,18.54 -33.43,36.2 -51.96,52.69 -34.01,30.21 -66.56,62.76 -103.78,88.45 -30.36,21.02 -68.01,31.23 -100.27,50.06 -93.12,54.3 -195.29,86.7 -296.43,120.27 -61.3,20.43 -126.11,32.69 -190.18,41.74 -15.91,2.19 -31.82,4.23 -47.73,5.99 -143.33,15.9 -283.59,12.11 -420.79,-11.39 -1.31,-0.14 -2.63,-0.44 -3.94,-0.58 -1.31,-0.29 -2.48,-0.44 -3.65,-0.59 -1.31,-0.14 -2.48,-0.43 -3.65,-0.58 -2.77,-0.44 -5.25,-0.87 -7,-1.17 -3.36,-0.58 -4.96,-0.87 -4.96,-0.87 -0.73,-0.15 -1.32,-0.29 -2.05,-0.44 -478.73,-108.3 -716.785,-330.3 -834.57,-537.7 -19.703,-45.24 -38.82,-90.64 -58.234,-135.88 -4.817,-11.24 -10.363,-22.04 -15.324,-33.13 -17.223,-54.45 -27.149,-104.65 -32.696,-147.42 0.293,-3.35 0.586,-6.71 1.168,-10.22 3.793,-26.12 -9.926,-54.73 -7.152,-81.44 1.312,-11.53 1.168,-22.04 -0.438,-31.52 0,0 0,0 0,-0.15 -1.605,-10.51 -5.109,-20 -10.363,-28.32 -8.32,-12.99 -21.164,-23.35 -39.113,-31.52 -17.223,-7.74 -27.442,-19.56 -32.844,-34.59 -3.062,-7.74 -4.668,-16.5 -5.105,-26.13 -3.36,-57.36 -10.508,-114.57 -12.262,-171.93 -0.293,-8.76 -0.582,-17.52 -0.731,-26.28 v -1.31 c -2.336,-86.11 -2.769,-171.93 -3.793,-258.05 0,-5.4 -0.144,-10.94 -0.144,-16.35 -0.149,-4.96 0.875,-10.07 2.043,-15.03 0.726,-3.06 1.605,-6.27 2.48,-9.19 11.532,-40.29 22.77,-80.72 35.321,-120.71 2.625,-8.32 6.859,-17.22 12.843,-23.79 1.313,-1.46 2.629,-2.77 4.086,-4.09 0,0 0.149,-0.14 0.586,-0.43 0.289,-0.3 0.875,-0.73 1.457,-1.17 35.032,-27.15 75.317,-40.43 125.668,-36.49 0,-41.6 0,-79.84 0.149,-118.08 0.144,-203.31 -0.586,-406.63 0.875,-609.94 0.437,-64.22 24.226,-121.58 63.926,-172.08 106.402,-135.16 324.312,-117.21 399.767,32.98 21.61,43.06 24.96,89.47 25.4,136.47 0.58,64.07 0.44,128.29 2.19,192.37 0.88,26.71 11.24,50.64 38.82,61.15 27.3,10.51 52.11,4.24 73.57,-15.61 10.65,-9.93 21.3,-20 31.67,-30.36 114.72,-115.89 228.27,-232.8 344.45,-347.08 68.16,-67 151.21,-81.88 241.7,-53.71 47.15,14.74 81.3,48.31 114.14,83.19 106.25,112.68 212.51,225.21 318.47,337.89 22.19,23.49 47.73,39.99 80.28,26.12 31.52,-13.28 37.07,-42.47 36.92,-73.41 -0.29,-71.52 -1.16,-142.89 -0.43,-214.41 1.31,-103.78 65.24,-191.2 158.21,-217.77 97.79,-28.17 201.27,12.56 257.61,100.57 36.2,56.63 50.36,118.95 50.36,185.51 -0.3,209.73 -0.3,419.47 -0.3,629.35 0,16.35 -0.58,32.99 1.32,49.34 0.73,6.13 7.15,15.9 12.11,16.63 22.19,3.51 44.81,4.38 68.6,6.43 0.88,-9.49 1.9,-16.64 1.9,-23.79 0.44,-126.84 0.29,-341.25 0.87,-468.08 24.82,1.17 51.96,1.75 78.97,1.9 -0.3,2.77 -0.73,5.98 -0.73,9.34 0,138.22 0.14,364.15 0.29,502.52 0,4.52 0,9.19 0.44,13.72 2.48,26.13 5.1,52.11 7.59,78.23 3.64,80.13 5.69,207.99 6.85,319.35 -6.27,74.29 -11.09,148.44 1.46,222.44 7.01,41.74 -8.9,65.82 -42.61,84.07" /><path
         id="path20"
         style="fill:none;stroke:#0e0f0e;stroke-width:47.81280136;stroke-linecap:butt;stroke-linejoin:miter;stroke-miterlimit:10;stroke-dasharray:none;stroke-opacity:1"
         d="m 3024.74,1853.87 c 0,-76.58 -42.82,-138.66 -95.63,-138.66 -52.81,0 -95.63,62.08 -95.63,138.66 0,76.57 42.82,138.65 95.63,138.65 52.81,0 95.63,-62.08 95.63,-138.65 z" /><path
         id="path22"
         style="fill:none;stroke:#0e0f0e;stroke-width:47.81280136;stroke-linecap:butt;stroke-linejoin:miter;stroke-miterlimit:10;stroke-dasharray:none;stroke-opacity:1"
         d="m 2833.48,1876.98 c 14.75,-5.78 90.45,-40.45 191.26,11.55" /><path
         id="path24"
         style="fill:none;stroke:#0e0f0e;stroke-width:47.81280136;stroke-linecap:butt;stroke-linejoin:miter;stroke-miterlimit:10;stroke-dasharray:none;stroke-opacity:1"
         d="m 2836.6,1818.92 c 0,0 87.33,-63.83 188.14,0" /><path
         id="path26"
         style="fill:#231f20;fill-opacity:1;fill-rule:nonzero;stroke:none"
         d="m 2724.48,3241.17 c 0,0 7.3,60.57 -8.76,149.46 0,0.58 -0.14,1.16 -0.29,1.89 -37.36,204.93 -197.91,557.99 -850.62,667.89 -0.59,0.15 -1.32,0.15 -1.9,0.29 0,0 -0.88,0.15 -2.48,0.3 -1.61,0.14 -4.23,0.58 -7.74,0.87 -3.65,0.44 -7.44,0.73 -11.09,1.02 -62.91,5.7 -256.88,16.35 -476.1,-38.38 -143.62,-35.91 -298.19,-99.83 -433.637,-212.08 -5.105,-4.08 -10.215,-8.32 -15.179,-12.69 -3.649,-3.07 -7.297,-6.13 -10.801,-9.35 -56.192,-49.91 -108.735,-108.73 -155.149,-177.76 0,0 -0.144,-0.15 -0.293,-0.3 -1.312,-2.04 -9.925,-14.01 -20.726,-34.59 -3.207,-6.13 -6.711,-12.99 -10.215,-20.72 -2.629,-5.41 -4.965,-10.66 -7.152,-16.21 -2.043,-4.67 -3.942,-9.63 -5.84,-14.74 -25.102,-65.82 -46.703,-165.22 -21.016,-284.9 H 477.945 c 0,0 -0.875,7.73 -1.461,21.6 0,0.15 0,0.15 0,0.15 -0.875,24.37 -0.875,67.57 6.422,123.18 5.547,42.77 15.473,92.97 32.696,147.42 16.636,53.27 40.285,110.48 73.558,169.01 117.785,207.4 355.84,429.4 834.57,537.7 0.73,0.15 1.32,0.29 2.05,0.44 0,0 1.6,0.29 4.96,0.87 1.75,0.3 4.23,0.73 7,1.17 1.17,0.15 2.34,0.44 3.65,0.58 1.17,0.15 2.34,0.3 3.65,0.59 55.32,8.17 222.58,28.75 424.73,11.97 260.97,-21.6 580.02,-105.67 790.35,-359.2 122.01,-146.83 207.54,-350.29 224.47,-631.55 l -160.11,-23.93" /><path
         id="path28"
         style="fill:#0e0f0e;fill-opacity:1;fill-rule:nonzero;stroke:none"
         d="m 556.613,2457.39 c -59.402,-15.03 -114.718,27.44 -125.668,36.49 -0.582,0.44 -1.168,0.87 -1.457,1.17 -0.437,0.29 -0.586,0.43 -0.586,0.43 -1.457,1.32 -2.773,2.63 -4.086,4.09 -35.906,35.47 -44.515,70.06 -50.644,153.69 -0.731,10.22 -1.317,20.58 -1.899,31.38 -3.796,80.13 -1.023,174.27 3.793,258.05 v 1.31 c 7.008,123.63 18.098,224.34 18.098,224.34 5.402,15.03 15.621,26.85 32.844,34.59 17.949,8.17 30.793,18.53 39.113,31.52 7.152,4.24 11.824,6.72 11.824,6.72 l 8.172,-81.01 h -9.047 v -569.22 h 66.118 l 13.425,-133.55" /><path
         id="path30"
         style="fill:#231f20;fill-opacity:1;fill-rule:nonzero;stroke:none"
         d="m 2974.06,3118.57 c 0,0 -0.14,-101.44 -1.46,-222.44 -1.16,-111.36 -3.21,-239.22 -6.85,-319.35 -2.05,-45.97 -4.53,-76.19 -7.59,-78.23 l 0.14,4.82 -70.79,737.8 c 0.15,-0.15 0.15,-0.15 0.29,-0.15 27.15,-22.62 102.03,-47.58 86.26,-122.45" /><path
         id="path32"
         style="fill:#0e0f0e;fill-opacity:1;fill-rule:nonzero;stroke:none"
         d="m 592.535,1038.84 57.613,218.45 c 9.598,41.59 35.184,61.58 76.817,60.01 h 38.406 c 48.008,-1.61 72.801,-27.24 74.418,-76.81 V 921.219 c 0,-38.41 -20.816,-57.61 -62.414,-57.61 -43.211,0 -64.812,19.2 -64.812,57.61 V 1137.26 L 647.746,897.211 c -4.797,-24.012 -23.211,-35.18 -55.211,-33.602 -32.027,-1.578 -50.406,9.59 -55.211,33.602 l -64.808,240.049 h -2.403 V 921.219 c 0,-38.41 -20.816,-57.61 -62.418,-57.61 -41.625,0 -62.406,19.2 -62.406,57.61 v 319.271 c 1.574,49.57 25.578,75.2 72.016,76.81 h 40.808 c 39.981,3.19 64.809,-16.81 74.414,-60.01 l 60.008,-218.45" /><path
         id="path34"
         style="fill:#0e0f0e;fill-opacity:1;fill-rule:nonzero;stroke:none"
         d="m 1225.88,1024.43 c 0,57.61 -18.42,86.42 -55.21,86.42 -35.22,0 -52.81,-28.81 -52.81,-86.42 1.57,-54.418 19.21,-81.61 52.81,-81.61 36.79,1.578 55.21,28.801 55.21,81.61 z m -235.247,2.41 c 3.191,107.19 63.197,163.23 180.037,168.03 116.8,-4.8 176.81,-60.84 180.04,-168.03 -1.62,-107.238 -61.62,-161.621 -180.04,-163.231 -118.45,1.61 -178.463,55.993 -180.037,163.231" /><path
         id="path36"
         style="fill:#0e0f0e;fill-opacity:1;fill-rule:nonzero;stroke:none"
         d="m 1484.74,1026.84 c 3.19,107.19 63.2,163.23 180.04,168.03 89.61,-3.23 138.4,-32.04 146.42,-86.41 -1.61,-28.81 -16.79,-44.05 -45.6,-45.61 -9.6,0 -21.6,6.37 -36.01,19.19 -20.81,15.98 -39.23,24.01 -55.21,24.01 -40.02,0 -60.83,-25.62 -62.41,-76.81 1.58,-52.81 20.78,-80.041 57.61,-81.619 15.98,0 34.39,8 55.22,24 15.98,12.801 29.59,19.219 40.8,19.219 28.81,-1.629 44.79,-16.809 48.01,-45.61 -12.83,-52.808 -62.42,-80.011 -148.83,-81.621 -118.45,1.61 -178.46,55.993 -180.04,163.231" /><path
         id="path38"
         style="fill:#0e0f0e;fill-opacity:1;fill-rule:nonzero;stroke:none"
         d="m 2077.28,1082.04 69.62,86.42 c 14.39,19.22 31.2,27.98 50.41,26.41 35.18,-3.23 53.59,-20.82 55.21,-52.8 -1.62,-16.03 -9.6,-30.42 -24.01,-43.22 l -40.8,-40.81 62.41,-86.419 c 15.98,-25.609 24,-44.812 24,-57.609 -3.22,-32.032 -24.83,-48.793 -64.81,-50.403 -25.62,-4.8 -49.63,12.789 -72.02,52.813 l -33.61,60.008 -28.79,-26.41 v -28.801 c 0,-38.41 -20.04,-57.61 -60.02,-57.61 -41.64,0 -62.42,19.2 -62.42,57.61 v 331.271 c 0,43.2 20.78,64.81 62.42,64.81 39.98,0 60.02,-21.61 60.02,-64.81 v -170.45 h 2.39" /><path
         id="path40"
         style="fill:#0e0f0e;fill-opacity:1;fill-rule:nonzero;stroke:none"
         d="m 2420.16,950.02 v 273.66 c -1.61,57.61 25.57,85.59 81.62,84.01 h 223.24 c 41.6,0 62.41,-16.8 62.41,-50.4 -1.61,-35.22 -22.43,-52.82 -62.41,-52.82 h -163.23 v -62.4 h 132.03 c 39.98,0 60,-16.81 60,-50.42 -1.61,-35.22 -21.59,-52.81 -60,-52.81 h -132.03 v -69.61 h 170.44 c 39.98,0 60.79,-16.808 62.4,-50.421 -1.61,-35.219 -22.42,-52.797 -62.4,-52.797 h -230.45 c -56.05,0 -83.23,27.98 -81.62,84.008" /><path
         id="path42"
         style="fill:#0e0f0e;fill-opacity:1;fill-rule:nonzero;stroke:none"
         d="m 3103.91,976.43 h 158.43 c 43.2,0 64.81,-18.418 64.81,-55.211 0,-36.84 -21.61,-55.207 -64.81,-55.207 h -280.86 c -44.82,1.578 -68.03,22.386 -69.62,62.41 -3.22,19.199 9.61,43.199 38.42,72.008 l 177.64,196.84 h -139.23 c -43.22,0 -65.64,18.39 -67.22,55.22 1.58,36.78 24,55.2 67.22,55.2 h 268.85 c 39.98,-1.61 60.8,-22.42 62.41,-62.42 1.57,-19.19 -7.2,-38.39 -26.41,-57.59 L 3103.91,976.43" /><path
         id="path44"
         style="fill:#0e0f0e;fill-opacity:1;fill-rule:nonzero;stroke:none"
         d="m 209.91,359.449 c 3.192,5.949 8.922,15.672 17.153,29.172 8.234,13.481 17.492,28.801 27.781,45.949 10.293,17.149 21.265,34.989 32.926,53.512 11.668,18.527 22.75,35.668 33.273,51.449 10.512,15.778 19.656,29.258 27.437,40.469 7.77,11.199 13.258,17.941 16.465,20.242 3.192,2.278 6.399,4.34 9.606,6.168 3.191,1.82 6.855,2.75 10.976,2.75 4.559,0 8.45,-1.379 11.657,-4.121 3.195,-2.75 5.937,-6.168 8.234,-10.289 2.285,-4.121 4.227,-8.469 5.828,-13.031 1.598,-4.59 2.852,-8.481 3.777,-11.668 7.77,-26.059 12.692,-52.711 14.747,-79.922 2.058,-27.207 4.687,-54.078 7.886,-80.598 4.121,-36.14 9.145,-72.031 15.098,-107.699 5.934,-35.66 8.914,-71.801 8.914,-108.391 0,-5.941 -0.922,-12 -2.742,-18.171 -1.832,-6.168 -4.457,-11.899 -7.891,-17.149 -3.43,-5.269 -7.66,-9.601 -12.691,-13.039 -5.031,-3.434 -10.977,-5.141 -17.832,-5.141 -6.414,0 -11.668,1.368 -15.778,4.118 -4.121,2.73 -8.011,6.402 -11.66,10.972 -2.746,3.188 -5.73,12.571 -8.922,28.117 -3.203,15.551 -6.293,34.184 -9.257,55.922 -2.981,21.711 -5.954,45.379 -8.926,71 -2.977,25.602 -5.485,49.95 -7.539,73.059 -2.059,23.082 -3.891,43.769 -5.489,62.07 -1.609,18.289 -2.636,31.102 -3.089,38.422 -2.289,-4.121 -6.411,-12.012 -12.344,-23.672 -5.953,-11.648 -13.035,-24.918 -21.27,-39.789 -8.23,-14.871 -17.144,-30.289 -26.75,-46.301 -9.609,-16.019 -19.441,-30.75 -29.5,-44.238 -10.062,-13.5 -20.011,-24.601 -29.84,-33.281 -9.839,-8.692 -18.863,-13.031 -27.093,-13.031 -8.231,0 -15.332,2.972 -21.266,8.929 -5.953,5.922 -10.976,13.121 -15.094,21.602 -4.113,8.461 -7.55,17.148 -10.293,26.058 -2.742,8.922 -5.039,16.582 -6.855,22.993 l -32.242,115.918 c -1.375,-6.399 -3.547,-18.508 -6.52,-36.34 -2.98,-17.848 -6.172,-38.43 -9.601,-61.75 -3.434,-23.321 -7.0981,-47.68 -10.9731,-73.059 -3.8906,-25.371 -7.4414,-48.711 -10.6328,-69.969 -3.207,-21.269 -5.9531,-38.992 -8.2343,-53.171 -2.293,-14.168 -3.668,-21.719 -4.1172,-22.629 -3.6641,-5.032 -7.5469,-9.379 -11.6602,-13.032 -4.1172,-3.66 -9.8398,-5.488 -17.1523,-5.488 -7.3203,0 -13.4922,1.711 -18.5235,5.149 -5.039,3.421 -9.0351,7.769 -11.99997,13.031 -2.98047,5.258 -5.03907,11.078 -6.17188,17.48 C 0.570313,185.43 0,191.832 0,198.25 c 0,48.93 4.21875,97.059 12.6914,144.398 8.4531,47.34 17.2539,94.774 26.4141,142.352 1.8164,8.219 3.6484,18.512 5.4883,30.859 1.8164,12.352 4.7929,24.243 8.914,35.672 4.1133,11.43 9.5977,21.149 16.461,29.149 6.8632,8 16.2304,12.019 28.1289,12.019 9.6013,0 18.4023,-4.711 26.4063,-14.07 7.996,-9.379 15.437,-21.508 22.301,-36.359 6.855,-14.872 13.254,-31.329 19.203,-49.391 5.937,-18.07 11.426,-35.789 16.465,-53.168 5.023,-17.379 9.828,-33.262 14.402,-47.672 4.566,-14.41 8.922,-25.269 13.035,-32.59" /><path
         id="path46"
         style="fill:#0e0f0e;fill-opacity:1;fill-rule:nonzero;stroke:none"
         d="m 795.738,310.07 c 0,3.192 -0.34,8.789 -1.031,16.801 -0.684,8 -2.055,16.117 -4.113,24.359 -2.059,8.219 -4.805,15.418 -8.231,21.61 -3.429,6.172 -7.664,9.25 -12.691,9.25 -5.488,0 -11.32,-1.258 -17.492,-3.758 -6.176,-2.531 -12.008,-4.242 -17.496,-5.152 -17.379,-3.68 -32.012,-10.418 -43.899,-20.239 -11.902,-9.832 -21.73,-21.511 -29.5,-34.992 -7.781,-13.488 -13.375,-28.238 -16.808,-44.238 -3.43,-16.012 -5.141,-32.02 -5.141,-48.02 0,-6.421 0.793,-11.562 2.394,-15.441 1.606,-3.891 4.911,-8.129 9.95,-12.691 v 0.691 c 10.054,-7.328 22.179,-10.98 36.359,-10.98 19.207,0 36.695,5.152 52.477,15.441 15.777,10.289 29.382,22.519 40.82,36.699 h -0.691 c 6.402,9.141 10.519,17.379 12.351,24.692 1.824,7.308 2.742,16.457 2.742,27.437 z m -232.55,-68.609 c 0,20.59 4.121,43.449 12.351,68.609 8.231,25.141 19.777,48.59 34.641,70.309 14.851,21.723 32.242,40.012 52.133,54.871 19.898,14.871 41.507,22.301 64.824,22.301 25.152,0 46.652,-3.422 64.484,-10.289 17.836,-6.864 32.348,-16.813 43.563,-29.84 11.199,-13.043 19.316,-28.934 24.351,-47.672 5.028,-18.762 7.551,-40.031 7.551,-63.801 0,-9.148 0,-17.258 0,-24.347 0,-7.102 -0.465,-13.723 -1.375,-19.903 -0.922,-6.168 -2.52,-12.578 -4.805,-19.211 -2.297,-6.629 -5.722,-14.297 -10.293,-22.976 -7.316,-13.723 -16.804,-26.75 -28.461,-39.09 -11.668,-12.363 -24.472,-23.113 -38.422,-32.242 -13.953,-9.149 -28.804,-16.469 -44.585,-21.95 -15.778,-5.492 -31.676,-8.238 -47.676,-8.238 -38.414,0 -69.403,10.738 -92.953,32.238 -23.563,21.489 -35.328,51.891 -35.328,91.231" /><path
         id="path48"
         style="fill:#0e0f0e;fill-opacity:1;fill-rule:nonzero;stroke:none"
         d="m 972.039,281.25 c 0,20.582 3.883,41.27 11.668,62.082 7.766,20.809 18.523,39.559 32.243,56.258 13.72,16.68 29.94,30.398 48.7,41.148 18.74,10.754 39.11,16.121 61.06,16.121 7.3,0 16.8,-1.019 28.46,-3.078 11.67,-2.062 23.09,-5.383 34.3,-9.953 11.2,-4.566 20.8,-10.289 28.81,-17.137 8,-6.871 12,-15.101 12,-24.703 0,-5.488 -1.14,-10.75 -3.42,-15.777 -2.3,-5.031 -6.64,-7.539 -13.04,-7.539 -5.04,0 -9.83,1.59 -14.4,4.797 -4.58,3.191 -9.61,6.859 -15.1,10.98 -5.48,4.102 -11.65,7.762 -18.52,10.973 -6.85,3.187 -15.08,4.797 -24.69,4.797 -12.81,0 -24.82,-2.86 -36.01,-8.578 -11.22,-5.731 -20.93,-13.153 -29.16,-22.289 -8.23,-9.153 -14.75,-19.672 -19.55,-31.563 -4.8,-11.898 -7.2,-24.008 -7.2,-36.359 0,-15.09 1.02,-28.571 3.08,-40.461 2.06,-11.899 5.94,-21.848 11.66,-29.848 5.72,-8.012 13.83,-14.18 24.36,-18.512 10.51,-4.359 24.23,-6.527 41.16,-6.527 7.3,0 14.51,0.797 21.61,2.406 7.08,1.59 14.29,3.422 21.61,5.492 7.31,2.051 14.51,3.989 21.6,5.829 7.09,1.82 14.29,2.73 21.61,2.73 10.98,0 20.12,-2.848 27.44,-8.559 7.31,-5.73 10.97,-14.531 10.97,-26.421 0,-11.438 -4.79,-20.918 -14.4,-28.457 -9.61,-7.551 -21.04,-13.61 -34.3,-18.192 -13.27,-4.57 -26.75,-7.879 -40.47,-9.949 -13.72,-2.051 -24.93,-3.082 -33.61,-3.082 -21.05,0 -41.17,3.312 -60.37,9.949 -19.21,6.621 -36.01,16.121 -50.42,28.473 -14.41,12.34 -25.966,27.32 -34.646,44.918 -8.695,17.609 -13.035,37.621 -13.035,60.031" /><path
         id="path50"
         style="fill:#0e0f0e;fill-opacity:1;fill-rule:nonzero;stroke:none"
         d="m 1347.96,211.969 c 0,10.511 0.9,27.781 2.74,51.793 1.82,24.008 4.34,51.109 7.54,81.277 3.2,30.191 7.09,61.75 11.67,94.672 4.57,32.93 9.71,63.461 15.44,91.578 5.7,28.133 11.88,52.141 18.52,72.043 6.62,19.879 13.37,31.898 20.23,36 4.57,2.75 9.61,4.117 15.09,4.117 6.86,0 12.8,-1.84 17.84,-5.48 5.03,-3.668 9.03,-8.231 12,-13.731 2.97,-5.488 5.26,-11.547 6.86,-18.168 1.6,-6.629 2.4,-12.691 2.4,-18.179 0,-19.672 -1.6,-39.34 -4.79,-58.993 -3.21,-19.668 -6.64,-39.109 -10.3,-58.308 -3.2,-17.848 -7.44,-35.68 -12.69,-53.508 -5.26,-17.832 -7.89,-35.902 -7.89,-54.191 l 0.69,-0.692 c 3.19,0.449 8.8,3.653 16.81,9.602 7.99,5.941 17.15,13.14 27.44,21.609 10.29,8.461 21.37,17.711 33.26,27.789 11.89,10.051 23.21,19.313 33.96,27.781 10.74,8.45 20.69,15.54 29.84,21.27 9.15,5.711 16,8.559 20.58,8.559 6.4,0 11.2,-2.727 14.41,-8.219 3.19,-5.488 4.8,-10.981 4.8,-16.461 0,-4.578 -4.35,-11.32 -13.03,-20.238 -8.7,-8.93 -18.76,-18.309 -30.19,-28.129 -11.43,-9.852 -22.53,-19.211 -33.27,-28.133 -10.75,-8.91 -18.18,-15.43 -22.29,-19.539 0.45,-2.762 3.31,-8.012 8.57,-15.781 5.25,-7.789 11.77,-17.149 19.55,-28.118 7.77,-10.98 16.12,-22.769 25.04,-35.339 8.92,-12.582 17.15,-25.161 24.7,-37.731 7.54,-12.582 13.82,-24.359 18.86,-35.332 5.03,-10.98 7.55,-20.359 7.55,-28.117 0,-12.801 -4.24,-24.25 -12.69,-34.301 -8.47,-10.062 -19.33,-15.09 -32.59,-15.09 -7.78,0 -15.55,4.348 -23.32,13.028 -7.79,8.691 -15.43,19.55 -22.98,32.582 -7.55,13.039 -14.99,27.211 -22.3,42.531 -7.32,15.316 -14.17,29.609 -20.57,42.879 -6.42,13.269 -12.47,24.347 -18.18,33.277 -5.73,8.914 -10.87,13.371 -15.44,13.371 -9.6,-3.207 -16.36,-9.719 -20.23,-19.558 -3.89,-9.832 -6.64,-21.039 -8.23,-33.61 -1.62,-12.582 -2.75,-25.949 -3.44,-40.121 -0.68,-14.18 -2.17,-27.101 -4.45,-38.769 -2.3,-11.661 -6.3,-21.27 -12.01,-28.809 -5.73,-7.543 -14.53,-11.312 -26.41,-11.312 -8.24,0 -14.98,2.859 -20.24,8.582 -5.26,5.699 -9.26,12.679 -12.01,20.91 -2.74,8.23 -4.57,16.816 -5.48,25.718 -0.92,8.93 -1.37,16.579 -1.37,22.989" /><path
         id="path52"
         style="fill:#0e0f0e;fill-opacity:1;fill-rule:nonzero;stroke:none"
         d="m 2153.3,590.629 c 22.4,3.191 44.7,5.492 66.87,6.871 22.18,1.371 44.49,2.051 66.9,2.051 8.22,0 16.46,-1.27 24.7,-3.77 8.22,-2.531 12.34,-9.043 12.34,-19.551 0,-5.48 -2.29,-10.988 -6.86,-16.468 -1.38,-1.832 -7.32,-3.774 -17.84,-5.832 -10.52,-2.059 -23.22,-4.11 -38.07,-6.168 -14.87,-2.063 -31.22,-4.012 -49.05,-5.832 -17.83,-1.828 -34.88,-3.551 -51.11,-5.149 -16.23,-1.609 -30.65,-2.98 -43.22,-4.121 -12.57,-1.14 -21.38,-1.941 -26.41,-2.39 h 2.75 c -1.84,-19.219 -3.43,-38.418 -4.8,-57.629 -1.37,-19.2 -2.05,-38.411 -2.05,-57.629 V 351.91 c 32.45,5.488 64.92,11.551 97.4,18.18 32.47,6.629 65.17,9.949 98.1,9.949 6.4,0 11.77,-1.027 16.12,-3.098 4.34,-2.05 6.51,-6.972 6.51,-14.742 0,-4.109 -1.14,-7.551 -3.42,-10.289 -2.29,-2.75 -5.05,-5.269 -8.24,-7.551 -2.74,-2.289 -8.81,-4.347 -18.17,-6.168 -9.38,-1.832 -20.36,-3.671 -32.93,-5.492 -12.58,-1.82 -26.07,-3.66 -40.48,-5.488 -14.41,-1.84 -28.36,-3.551 -41.84,-5.141 -13.49,-1.609 -25.72,-3.32 -36.71,-5.148 -10.97,-1.82 -19.2,-3.66 -24.68,-5.492 -3.21,-0.918 -5.73,-2.969 -7.56,-6.168 -1.82,-3.203 -3.08,-6.75 -3.76,-10.633 -0.69,-3.891 -1.16,-7.879 -1.38,-12 -0.23,-4.117 -0.35,-7.559 -0.35,-10.289 0,-16.469 0.23,-33.059 0.7,-49.731 0.44,-16.711 0.69,-33.277 0.69,-49.75 13.25,3.2 30.51,6.289 51.78,9.27 21.27,2.961 43.33,5.601 66.21,7.883 22.86,2.289 45.04,4.226 66.53,5.84 21.5,1.597 39.1,2.398 52.82,2.398 5.95,0 11.44,-1.84 16.47,-5.488 5.03,-3.66 7.54,-8.692 7.54,-15.09 0,-3.211 -0.69,-5.723 -2.06,-7.543 -2.73,-3.668 -7.66,-6.52 -14.75,-8.578 -7.1,-2.063 -14.98,-3.43 -23.66,-4.121 -8.69,-0.688 -17.05,-1.141 -25.04,-1.371 -8.01,-0.227 -14.3,-0.34 -18.86,-0.34 -20.58,-0.93 -41.28,-2.059 -62.09,-3.438 -20.81,-1.371 -41.5,-3.66 -62.07,-6.851 -15.56,-2.301 -30.87,-4.578 -45.97,-6.86 -15.09,-2.281 -30.64,-3.441 -46.65,-3.441 -10.52,0 -18.63,2.98 -24.34,8.93 -5.73,5.941 -11.79,12.8 -18.19,20.582 1.38,79.578 2.07,159.371 2.07,239.398 0,7.313 0.1,19.781 0.34,37.391 0.23,17.601 1.25,35.902 3.08,54.89 1.82,18.969 4.69,36.231 8.58,51.782 3.87,15.546 9.48,25.136 16.8,28.82 h -0.68 c 2.73,1.816 9.48,3.527 20.24,5.137 10.73,1.601 22.52,2.851 35.32,3.773 12.8,0.906 25.15,1.719 37.04,2.406 11.89,0.684 20.58,1.481 26.07,2.391 h -0.68" /><path
         id="path54"
         style="fill:#0e0f0e;fill-opacity:1;fill-rule:nonzero;stroke:none"
         d="m 2643.09,274.391 c -12.35,6.859 -25.84,10.289 -40.48,10.289 -8.7,0 -19.33,-1.61 -31.9,-4.801 -12.59,-3.207 -24.69,-7.66 -36.35,-13.367 -11.67,-5.731 -21.73,-12.821 -30.19,-21.27 -8.46,-8.461 -12.68,-17.961 -12.68,-28.48 0,-9.153 3.42,-15.551 10.27,-19.203 6.87,-3.661 14.19,-5.477 21.97,-5.477 3.19,0 8.79,0.34 16.8,1.02 8,0.687 16.81,1.828 26.42,3.437 9.59,1.59 19.65,3.531 30.17,5.832 10.52,2.277 20.13,4.801 28.82,7.539 8.68,2.75 15.78,5.711 21.27,8.918 5.48,3.192 8.22,6.863 8.22,10.981 0,5.031 0.57,9.941 1.71,14.75 1.14,4.8 1.73,9.703 1.73,14.742 0,3.66 -1.84,6.621 -5.49,8.918 -3.67,2.281 -6.87,4.351 -9.61,6.172 z m -180.42,97.41 c 0,15.09 5.94,29.258 17.83,42.531 11.89,13.27 26.18,24.699 42.87,34.309 16.69,9.597 34.2,17.14 52.48,22.629 18.29,5.492 33.84,8.23 46.66,8.23 14.62,0 29.49,-1.711 44.58,-5.129 15.09,-3.441 28.82,-8.93 41.16,-16.48 12.35,-7.539 22.41,-17.379 30.19,-29.493 7.77,-12.128 11.66,-26.66 11.66,-43.558 0,-10.059 -0.58,-19.899 -1.72,-29.512 -1.14,-9.59 -2.4,-19.187 -3.77,-28.797 -2.75,-20.582 -4.8,-41.172 -6.17,-61.75 -1.38,-20.562 -2.52,-41.152 -3.43,-61.73 3.65,0 7.99,-0.449 13.02,-1.371 5.04,-0.918 9.73,-2.41 14.07,-4.461 4.35,-2.071 8,-4.797 10.98,-8.239 2.96,-3.421 4.46,-7.441 4.46,-12 0,-6.851 -1.61,-13.031 -4.8,-18.511 -3.21,-5.489 -7.44,-10.188 -12.69,-14.071 -5.27,-3.886 -11.1,-6.968 -17.5,-9.269 -6.4,-2.277 -12.57,-3.418 -18.52,-3.418 -9.6,0 -17.39,1.598 -23.32,4.789 -5.95,3.211 -10.97,6.871 -15.09,10.988 -4.12,4.114 -7.67,8.114 -10.63,12 -2.98,3.883 -6.08,6.524 -9.27,7.891 -10.52,-5.039 -19.9,-9.5 -28.12,-13.367 -8.24,-3.903 -16.59,-7.223 -25.04,-9.953 -8.47,-2.75 -17.39,-4.809 -26.76,-6.18 -9.38,-1.379 -20.24,-2.059 -32.58,-2.059 -11.9,0 -24.13,1.039 -36.7,3.09 -12.59,2.051 -24.01,5.719 -34.3,10.981 -10.29,5.238 -18.75,12.57 -25.38,21.949 -6.63,9.359 -9.95,21.379 -9.95,36.012 0,26.07 6.74,48.367 20.24,66.878 13.48,18.532 30.4,33.629 50.76,45.282 20.35,11.66 42.64,20.238 66.89,25.726 24.23,5.492 47.09,8.231 68.6,8.231 12.8,0 20.45,3.191 22.97,9.601 2.51,6.399 3.78,15.539 3.78,27.442 0,4.558 -1.27,9.136 -3.78,13.726 -2.52,4.563 -5.73,8.793 -9.6,12.684 -3.89,3.879 -8.23,6.969 -13.03,9.269 -4.8,2.278 -9.49,3.418 -14.07,3.418 -20.12,0 -37.27,-1.949 -51.44,-5.828 -14.18,-3.89 -26.54,-8.699 -37.04,-14.41 -10.54,-5.723 -19.22,-12 -26.07,-18.859 -6.86,-6.852 -13.04,-13.153 -18.53,-18.871 -5.49,-5.719 -10.52,-10.52 -15.08,-14.399 -4.59,-3.89 -9.38,-5.832 -14.41,-5.832 -5.05,0 -8.7,2.281 -10.98,6.86 -2.29,4.562 -3.43,8.921 -3.43,13.031" /><path
         id="path56"
         style="fill:#0e0f0e;fill-opacity:1;fill-rule:nonzero;stroke:none"
         d="m 2873.56,355.328 c 0,13.731 3.44,26.301 10.3,37.731 6.85,11.429 15.53,21.613 26.07,30.531 10.5,8.93 22.05,16.469 34.63,22.64 12.57,6.168 24.8,11.09 36.7,14.75 11.43,3.192 22.98,5.032 34.65,5.489 11.66,0.453 23.42,0.679 35.32,0.679 15.1,0 29.95,-1.949 44.59,-5.828 14.64,-3.89 27.66,-9.718 39.11,-17.492 11.42,-7.777 20.58,-17.957 27.44,-30.527 6.85,-12.582 10.29,-27.321 10.29,-44.242 0,-12.34 -3.09,-22.629 -9.27,-30.868 -6.17,-8.23 -15.89,-12.351 -29.14,-12.351 -9.61,0 -16.94,1.601 -21.97,4.808 -5.03,3.192 -9.02,7.313 -12,12.34 -2.98,5.032 -5.37,10.293 -7.2,15.782 -1.84,5.492 -4.23,10.73 -7.2,15.781 -2.98,5.031 -6.98,9.129 -12.01,12.34 -5.03,3.187 -12.12,4.808 -21.27,4.808 -7.78,0 -18.07,-0.801 -30.86,-2.398 -12.81,-1.61 -25.15,-4.461 -37.04,-8.582 -11.9,-4.117 -22.19,-9.719 -30.87,-16.797 -8.7,-7.102 -13.05,-15.902 -13.05,-26.422 0,-7.781 4.24,-14.75 12.7,-20.922 8.46,-6.168 19.09,-12.457 31.9,-18.859 12.8,-6.41 26.51,-13.039 41.15,-19.899 14.64,-6.851 28.37,-14.98 41.17,-24.351 12.8,-9.379 23.43,-20.231 31.9,-32.59 8.45,-12.34 12.68,-26.981 12.68,-43.899 0,-16.46 -4.35,-29.73 -13.03,-39.781 -8.69,-10.058 -19.44,-17.84 -32.24,-23.328 -12.81,-5.492 -26.64,-9.141 -41.5,-10.98 -14.87,-1.821 -28.71,-2.731 -41.5,-2.731 -9.6,0 -20.58,1.141 -32.94,3.422 -12.34,2.289 -24,6.066 -34.97,11.309 -10.98,5.281 -20.24,12.019 -27.78,20.238 -7.56,8.242 -11.32,18.531 -11.32,30.883 0,7.758 2.62,14.976 7.88,21.609 5.26,6.617 12,9.938 20.24,9.938 6.4,0 12.57,-1.258 18.52,-3.77 5.94,-2.527 12.01,-5.148 18.18,-7.891 6.18,-2.75 12.46,-5.378 18.86,-7.886 6.4,-2.512 13.49,-3.762 21.27,-3.762 3.19,0 8.81,0.34 16.8,1.02 8,0.691 16.12,1.832 24.36,3.421 8.23,1.598 15.44,3.887 21.61,6.868 6.17,2.972 9.26,6.742 9.26,11.32 0,4.121 -4.46,8.793 -13.38,14.051 -8.92,5.261 -20.01,11.211 -33.27,17.851 -13.27,6.61 -27.78,14.047 -43.56,22.289 -15.77,8.231 -30.3,17.489 -43.55,27.782 -13.27,10.289 -24.36,21.718 -33.29,34.289 -8.9,12.589 -13.37,26.64 -13.37,42.187" /><path
         id="path58"
         style="fill:#0e0f0e;fill-opacity:1;fill-rule:nonzero;stroke:none"
         d="m 3523.88,487.73 c 5.48,0 10.29,-1.609 14.41,-4.8 4.12,-3.211 7.54,-7.098 10.29,-11.66 2.73,-4.571 4.8,-9.598 6.17,-15.09 1.37,-5.489 2.05,-10.52 2.05,-15.098 0,-4.57 -2.64,-13.48 -7.88,-26.75 -5.26,-13.273 -12.24,-29.391 -20.92,-48.363 -8.7,-18.969 -18.76,-40.028 -30.19,-63.098 -11.43,-23.109 -23.32,-46.652 -35.67,-70.672 -12.35,-24 -24.81,-47.558 -37.38,-70.648 -12.59,-23.09 -24.13,-44.25 -34.65,-63.4612 -10.52,-19.1992 -19.89,-35.6601 -28.12,-49.3906 -8.24,-13.7109 -14.41,-22.8594 -18.52,-27.4375 -4.12,-5.0312 -9.04,-9.832 -14.75,-14.41014 C 3322.99,2.28906 3316.48,0 3309.16,0 c -7.31,0 -12.45,2.62891 -15.43,7.87891 -2.98,5.26949 -4.46,11.10159 -4.46,17.49999 0,6.8594 1.59,15.1016 4.8,24.6914 3.19,9.6094 7.31,19.8985 12.36,30.8711 5.01,10.9805 10.39,22.0706 16.12,33.2696 5.7,11.219 11.07,21.609 16.12,31.219 5.01,9.601 9.13,18.05 12.34,25.379 3.19,7.312 4.8,12.339 4.8,15.089 0,3.653 -2.4,10.641 -7.21,20.934 -4.79,10.289 -10.86,22.387 -18.17,36.34 -7.33,13.957 -15.21,29.168 -23.66,45.629 -8.47,16.461 -16.36,32.808 -23.68,49.051 -7.31,16.226 -13.37,31.777 -18.17,46.648 -4.8,14.852 -7.2,27.531 -7.2,38.07 0,4.559 1.03,9.7 3.08,15.43 2.05,5.719 4.8,10.98 8.24,15.781 3.42,4.809 7.43,8.797 12,12 4.56,3.199 9.61,4.809 15.1,4.809 8.22,0 16.22,-4.578 24,-13.731 7.77,-9.148 15.09,-20.578 21.95,-34.289 6.87,-13.73 13.27,-28.711 19.21,-44.941 5.93,-16.238 11.42,-31.668 16.46,-46.301 5.04,-14.637 9.48,-27.207 13.37,-37.726 3.9,-10.532 7.44,-16.93 10.64,-19.211 4.57,5.488 9.83,14.507 15.78,27.101 5.94,12.567 12.11,26.746 18.53,42.528 6.4,15.781 13.14,32.121 20.24,49.039 7.08,16.921 14.39,32.363 21.95,46.312 7.54,13.938 15.09,25.488 22.63,34.641 7.54,9.148 15.19,13.718 22.98,13.718" /><path
         id="path60"
         style="fill:#a5a7a9;fill-opacity:1;fill-rule:nonzero;stroke:none"
         d="m 1986.81,2743.76 c -4.26,-148.64 -128.22,-265.67 -276.85,-261.4 -148.64,4.27 -265.67,128.22 -261.4,276.86 4.26,148.63 128.22,265.67 276.85,261.4 148.64,-4.27 265.67,-128.22 261.4,-276.86" /><path
         id="path62"
         style="fill:#ffffff;fill-opacity:1;fill-rule:nonzero;stroke:none"
         d="m 1863.64,2839.06 c 0,-32.24 -26.14,-58.38 -58.38,-58.38 -32.25,0 -58.38,26.14 -58.38,58.38 0,32.25 26.13,58.38 58.38,58.38 32.24,0 58.38,-26.13 58.38,-58.38" /><path
         id="path64"
         style="fill:#231f20;fill-opacity:1;fill-rule:nonzero;stroke:none"
         d="m 1808.35,2796.64 c 24.28,0.51 44.42,21.93 43.79,46.58 -0.64,25.03 -28.13,50.77 -54.25,50.78 -23.39,0.01 -43.58,-22.09 -43.12,-47.2 0.5,-26.94 25.93,-50.75 53.58,-50.16 z m -90.3,185.65 c 120.89,-8.31 202.26,-74.35 203.95,-197.5 1.58,-114.69 -95.02,-212.91 -208.15,-209.36 -114.96,3.61 -201.96,84.43 -203.35,204.44 -1.31,112.95 91.03,201.98 207.55,202.42" /></g></g></svg>